<?xml version="1.0" encoding="utf-8"?>
<!-- Generator: Adobe Illustrator 26.5.0, SVG Export Plug-In . SVG Version: 6.00 Build 0)  -->
<svg version="1.1" xmlns="http://www.w3.org/2000/svg" xmlns:xlink="http://www.w3.org/1999/xlink" x="0px" y="0px"
	 viewBox="0 0 948.4 525.7" style="enable-background:new 0 0 948.4 525.7;" xml:space="preserve">
<style type="text/css">
	.st0{fill:#78BFEA;stroke:#00A0D1;stroke-width:2.8346;stroke-miterlimit:10;}
	.st1{fill:none;stroke:#00A0D1;stroke-width:2.8346;stroke-miterlimit:10;}
	.st2{fill:#78BFEA;stroke:#414042;stroke-width:2.8346;stroke-miterlimit:10;}
	.st3{fill:none;stroke:#414042;stroke-width:2.8346;stroke-miterlimit:10;}
	.st4{fill:none;stroke:#0C00FF;stroke-width:5.6693;stroke-miterlimit:10;}
	.st5{fill:none;stroke:#414042;stroke-width:0.9921;stroke-miterlimit:10;}
	.st6{fill:#414042;}
	.st7{fill:#231F20;}
	.st8{opacity:0.43;fill:none;stroke:#231F20;stroke-width:1.4173;stroke-miterlimit:10;}
	.st9{opacity:0.49;fill:#414042;}
	.st10{opacity:0.75;fill:#FFFFFF;stroke:#FFFFFF;stroke-miterlimit:10;}
	.st11{fill:#CCCCCC;stroke:#FFFFFF;stroke-width:2.8027;stroke-miterlimit:10;}
	.st12{fill:none;stroke:#231F20;stroke-width:2.8035;stroke-miterlimit:10;}
	.st13{fill:none;stroke:#231F20;stroke-width:2.8035;stroke-miterlimit:10;stroke-dasharray:2.8346,2.8346;}
	.st14{fill:#FFFFFF;stroke:#231F20;stroke-width:2.8346;stroke-miterlimit:10;}
</style>
<g id="Layer_1">
</g>
<g id="Layer_6">
</g>
<g id="Layer_5">
	<g>
		<g>
			<rect x="619" y="365.5" class="st0" width="274.1" height="111.1"/>
			<line class="st1" x1="619" y1="390.7" x2="893" y2="390.7"/>
		</g>
		<g>
			<path d="M688.8,422.4c1.6-0.2,3.6-0.4,5.7-0.4c3.6,0,6.1,0.7,7.9,2.2c1.8,1.4,2.8,3.4,2.8,6.1c0,2.9-1.1,5.1-2.8,6.7
				c-1.9,1.7-5,2.5-8.7,2.5c-2.1,0-3.7-0.1-4.8-0.2V422.4z M692.1,436.9c0.5,0.1,1.3,0.1,2.1,0.1c4.8,0,7.5-2.5,7.5-6.5
				c0-3.8-2.5-5.9-7-5.9c-1.2,0-2.1,0.1-2.6,0.2V436.9z"/>
			<path d="M715.5,439.3l-0.2-1.4h-0.1c-0.8,1-2.2,1.7-4,1.7c-2.8,0-4.2-1.9-4.2-3.7c0-3.1,2.8-4.8,8-4.7V431c0-0.7-0.3-2.2-2.7-2.2
				c-1.3,0-2.8,0.4-3.7,1l-0.7-2.1c1-0.6,2.8-1.2,4.9-1.2c4.2,0,5.5,2.6,5.5,5.4v4.3c0,1.2,0.1,2.3,0.2,3H715.5z M715.1,433.3
				c-2.6,0-4.8,0.5-4.8,2.3c0,1.2,0.8,1.7,1.9,1.7c1.4,0,2.4-0.9,2.8-1.8c0.1-0.2,0.1-0.5,0.1-0.7V433.3z"/>
			<path d="M725.4,423.3v3.6h3.2v2.5h-3.2v5.2c0,1.5,0.3,2.4,1.7,2.4c0.6,0,1.1-0.1,1.3-0.2l0.1,2.5c-0.5,0.2-1.4,0.4-2.5,0.4
				c-1.2,0-2.3-0.5-2.9-1.1c-0.7-0.7-1-2-1-3.5v-5.6h-1.9v-2.5h1.9V424L725.4,423.3z"/>
			<path d="M738.8,439.3l-0.2-1.4h-0.1c-0.8,1-2.2,1.7-4,1.7c-2.8,0-4.2-1.9-4.2-3.7c0-3.1,2.8-4.8,8-4.7V431c0-0.7-0.3-2.2-2.7-2.2
				c-1.3,0-2.8,0.4-3.7,1l-0.7-2.1c1-0.6,2.8-1.2,4.9-1.2c4.2,0,5.5,2.6,5.5,5.4v4.3c0,1.2,0.1,2.3,0.2,3H738.8z M738.4,433.3
				c-2.6,0-4.8,0.5-4.8,2.3c0,1.2,0.8,1.7,1.9,1.7c1.4,0,2.4-0.9,2.8-1.8c0.1-0.2,0.1-0.5,0.1-0.7V433.3z"/>
			<path d="M763.8,433c0,4.4-3.4,6.7-7,6.7c-3.8,0-6.8-2.5-6.8-6.4c0-3.9,2.8-6.6,7.1-6.6C761.1,426.6,763.8,429.3,763.8,433z
				 M753.3,433.1c0,2.5,1.5,4.2,3.5,4.2c1.9,0,3.5-1.5,3.5-4.2c0-2-1-4.1-3.5-4.1C754.5,428.9,753.3,431,753.3,433.1z"/>
			<path d="M766.4,439.3c0.1-0.8,0.1-2.2,0.1-3.5v-14.7h3.3v7.7h0.1c0.8-1.3,2.3-2.1,4.4-2.1c3.3,0,5.8,2.5,5.7,6.3
				c0,4.5-3.2,6.7-6.2,6.7c-1.8,0-3.4-0.6-4.4-2.3h-0.1l-0.1,2H766.4z M769.8,433.9c0,0.2,0,0.5,0.1,0.7c0.3,1.3,1.6,2.4,3.2,2.4
				c2.2,0,3.6-1.5,3.6-4c0-2.1-1.2-4-3.5-4c-1.5,0-2.8,0.9-3.2,2.5c-0.1,0.2-0.1,0.5-0.1,0.8V433.9z"/>
			<path d="M779.8,442.2c1.2-0.1,2.1-0.4,2.6-0.9c0.6-0.6,0.9-1.7,0.9-4.6v-9.8h3.3v10.8c0,2.5-0.5,4.3-1.7,5.4
				c-1.2,1.1-3,1.6-4.8,1.6L779.8,442.2z M786.8,423.4c0,0.9-0.7,1.7-1.9,1.7c-1.1,0-1.8-0.8-1.8-1.7c0-1,0.7-1.7,1.9-1.7
				C786.1,421.6,786.8,422.4,786.8,423.4z"/>
			<path d="M792.4,434c0.1,2.1,2,3.1,4.2,3.1c1.6,0,2.7-0.2,3.8-0.6l0.5,2.2c-1.2,0.5-2.7,0.9-4.8,0.9c-4.3,0-6.9-2.5-6.9-6.3
				c0-3.2,2.1-6.7,6.6-6.7c4.5,0,5.8,3.6,5.8,6.2c0,0.5-0.1,1-0.1,1.3H792.4z M798.6,431.8c0-0.9-0.4-3-2.9-3c-2.2,0-3.1,1.8-3.2,3
				H798.6z"/>
			<path d="M814.4,438.9c-0.7,0.3-2.2,0.7-4,0.7c-4.2,0-6.9-2.6-6.9-6.4c0-3.7,2.7-6.7,7.4-6.7c1.3,0,2.6,0.3,3.4,0.6l-0.6,2.4
				c-0.6-0.3-1.4-0.6-2.7-0.6c-2.6,0-4.2,1.7-4.2,4c0,2.6,1.9,4,4.2,4c1.3,0,2.2-0.3,2.8-0.6L814.4,438.9z"/>
			<path d="M821.1,423.3v3.6h3.2v2.5h-3.2v5.2c0,1.5,0.3,2.4,1.7,2.4c0.6,0,1.1-0.1,1.3-0.2l0.1,2.5c-0.5,0.2-1.4,0.4-2.5,0.4
				c-1.2,0-2.3-0.5-2.9-1.1c-0.7-0.7-1-2-1-3.5v-5.6H816v-2.5h1.9V424L821.1,423.3z"/>
		</g>
	</g>
	<rect x="60.3" y="365" class="st0" width="274.1" height="111.1"/>
	<g>
		<path d="M134.6,412.6l-1.6,5h-3.5l6.1-17.2h4.3l6.3,17.2h-3.6l-1.8-5H134.6z M140.2,410.1l-1.6-4.3c-0.4-1-0.7-2.1-1-3h-0.1
			c-0.3,0.9-0.5,2-0.9,3l-1.5,4.4H140.2z"/>
		<path d="M148.5,409.4c0-1.6,0-3-0.1-4.2h2.9l0.2,2h0.1c1-1.5,2.6-2.3,4.8-2.3c3,0,5.7,2.4,5.7,6.3c0,4.5-3.1,6.7-6.2,6.7
			c-1.7,0-3.2-0.6-4-1.8h-0.1v6.6h-3.3V409.4z M151.7,412.2c0,0.3,0,0.5,0.1,0.8c0.3,1.3,1.6,2.4,3.2,2.4c2.2,0,3.6-1.6,3.6-4.1
			c0-2.1-1.2-3.9-3.5-3.9c-1.5,0-2.9,1-3.3,2.6c-0.1,0.2-0.1,0.5-0.1,0.8V412.2z"/>
		<path d="M164.7,409.4c0-1.6,0-3-0.1-4.2h2.9l0.2,2h0.1c1-1.5,2.6-2.3,4.8-2.3c3,0,5.7,2.4,5.7,6.3c0,4.5-3.1,6.7-6.2,6.7
			c-1.7,0-3.2-0.6-4-1.8H168v6.6h-3.3V409.4z M168,412.2c0,0.3,0,0.5,0.1,0.8c0.3,1.3,1.6,2.4,3.2,2.4c2.2,0,3.6-1.6,3.6-4.1
			c0-2.1-1.2-3.9-3.5-3.9c-1.5,0-2.9,1-3.3,2.6c-0.1,0.2-0.1,0.5-0.1,0.8V412.2z"/>
		<path d="M181,399.3h3.3v18.3H181V399.3z"/>
		<path d="M191.5,401.6c0,0.9-0.7,1.7-1.9,1.7c-1.1,0-1.8-0.8-1.8-1.7c0-1,0.7-1.7,1.9-1.7C190.8,399.9,191.5,400.7,191.5,401.6z
			 M188,417.6v-12.4h3.3v12.4H188z"/>
		<path d="M204.9,417.2c-0.7,0.3-2.2,0.7-4,0.7c-4.2,0-6.9-2.6-6.9-6.4c0-3.7,2.7-6.7,7.4-6.7c1.3,0,2.6,0.3,3.4,0.6l-0.6,2.4
			c-0.6-0.3-1.4-0.6-2.7-0.6c-2.6,0-4.2,1.7-4.2,4c0,2.6,1.9,4,4.2,4c1.3,0,2.2-0.3,2.8-0.6L204.9,417.2z"/>
		<path d="M215.1,417.6l-0.2-1.4h-0.1c-0.8,1-2.2,1.7-4,1.7c-2.8,0-4.2-1.9-4.2-3.7c0-3.1,2.8-4.8,8-4.7v-0.2c0-0.7-0.3-2.2-2.7-2.2
			c-1.3,0-2.8,0.4-3.7,1l-0.7-2.1c1-0.6,2.8-1.2,4.9-1.2c4.2,0,5.5,2.6,5.5,5.4v4.3c0,1.2,0.1,2.3,0.2,3H215.1z M214.7,411.6
			c-2.6,0-4.8,0.5-4.8,2.3c0,1.2,0.8,1.7,1.9,1.7c1.4,0,2.4-0.9,2.8-1.8c0.1-0.2,0.1-0.5,0.1-0.7V411.6z"/>
		<path d="M225.1,401.5v3.6h3.2v2.5h-3.2v5.2c0,1.5,0.3,2.4,1.7,2.4c0.6,0,1.1-0.1,1.3-0.2l0.1,2.5c-0.5,0.2-1.4,0.4-2.5,0.4
			c-1.2,0-2.3-0.5-2.9-1.1c-0.7-0.7-1-2-1-3.5v-5.6H220v-2.5h1.9v-2.9L225.1,401.5z"/>
		<path d="M234.4,401.6c0,0.9-0.7,1.7-1.9,1.7c-1.1,0-1.8-0.8-1.8-1.7c0-1,0.7-1.7,1.9-1.7C233.7,399.9,234.4,400.7,234.4,401.6z
			 M230.9,417.6v-12.4h3.3v12.4H230.9z"/>
		<path d="M250.8,411.2c0,4.4-3.4,6.7-7,6.7c-3.8,0-6.8-2.5-6.8-6.4c0-3.9,2.8-6.6,7.1-6.6C248,404.9,250.8,407.6,250.8,411.2z
			 M240.3,411.4c0,2.5,1.5,4.2,3.5,4.2c1.9,0,3.5-1.5,3.5-4.2c0-2-1-4.1-3.5-4.1C241.4,407.2,240.3,409.2,240.3,411.4z"/>
		<path d="M253.5,408.9c0-1.4,0-2.7-0.1-3.8h2.9l0.2,2h0.1c0.5-1,2-2.3,4.3-2.3c2.2,0,4.8,1.3,4.8,5.6v7.1h-3.3v-6.7
			c0-2-0.8-3.4-2.7-3.4c-1.4,0-2.4,1-2.8,2c-0.1,0.3-0.1,0.6-0.1,1v7.2h-3.3V408.9z"/>
		<path d="M140.7,442.7c-0.7,0.3-2.2,0.7-4,0.7c-4.2,0-6.9-2.6-6.9-6.4c0-3.7,2.7-6.7,7.4-6.7c1.3,0,2.6,0.3,3.4,0.6l-0.6,2.4
			c-0.6-0.3-1.4-0.6-2.7-0.6c-2.6,0-4.2,1.7-4.2,4c0,2.6,1.9,4,4.2,4c1.3,0,2.2-0.3,2.8-0.6L140.7,442.7z"/>
		<path d="M156.1,436.7c0,4.4-3.4,6.7-7,6.7c-3.8,0-6.8-2.5-6.8-6.4c0-3.9,2.8-6.6,7.1-6.6C153.4,430.4,156.1,433.1,156.1,436.7z
			 M145.6,436.9c0,2.5,1.5,4.2,3.5,4.2c1.9,0,3.5-1.5,3.5-4.2c0-2-1-4.1-3.5-4.1C146.7,432.7,145.6,434.8,145.6,436.9z"/>
		<path d="M158.8,434.4c0-1.4,0-2.7-0.1-3.8h2.8l0.1,1.9h0.1c0.6-1,1.8-2.2,4.1-2.2c1.8,0,3.1,1,3.7,2.5h0.1c0.5-0.7,1-1.3,1.6-1.6
			c0.8-0.5,1.6-0.8,2.8-0.8c2.1,0,4.5,1.4,4.5,5.7v7.1h-3.2v-6.7c0-2.3-0.9-3.4-2.5-3.4c-1.2,0-2.1,0.8-2.4,1.7
			c-0.1,0.3-0.2,0.7-0.2,1.1v7.3h-3.2v-6.9c0-2-0.9-3.2-2.4-3.2c-1.4,0-2.2,1.1-2.5,1.9c-0.1,0.3-0.2,0.7-0.2,1.1v7.2h-3.2V434.4z"
			/>
		<path d="M182.1,434.9c0-1.6,0-3-0.1-4.2h2.9l0.2,2h0.1c1-1.5,2.6-2.3,4.8-2.3c3,0,5.7,2.4,5.7,6.3c0,4.5-3.1,6.7-6.2,6.7
			c-1.7,0-3.2-0.6-4-1.8h-0.1v6.6h-3.3V434.9z M185.4,437.7c0,0.3,0,0.5,0.1,0.8c0.3,1.3,1.6,2.4,3.2,2.4c2.2,0,3.6-1.6,3.6-4.1
			c0-2.1-1.2-3.9-3.5-3.9c-1.5,0-2.9,1-3.3,2.6c-0.1,0.2-0.1,0.5-0.1,0.8V437.7z"/>
		<path d="M211.4,436.7c0,4.4-3.4,6.7-7,6.7c-3.8,0-6.8-2.5-6.8-6.4c0-3.9,2.8-6.6,7.1-6.6C208.7,430.4,211.4,433.1,211.4,436.7z
			 M201,436.9c0,2.5,1.5,4.2,3.5,4.2c1.9,0,3.5-1.5,3.5-4.2c0-2-1-4.1-3.5-4.1C202.1,432.7,201,434.8,201,436.9z"/>
		<path d="M214.2,434.4c0-1.4,0-2.7-0.1-3.8h2.9l0.2,2h0.1c0.5-1,2-2.3,4.3-2.3c2.2,0,4.8,1.3,4.8,5.6v7.1H223v-6.7
			c0-2-0.8-3.4-2.7-3.4c-1.4,0-2.4,1-2.8,2c-0.1,0.3-0.1,0.6-0.1,1v7.2h-3.3V434.4z"/>
		<path d="M232.2,437.8c0.1,2.1,2,3.1,4.2,3.1c1.6,0,2.7-0.2,3.8-0.6l0.5,2.2c-1.2,0.5-2.7,0.9-4.8,0.9c-4.3,0-6.9-2.5-6.9-6.3
			c0-3.2,2.1-6.7,6.6-6.7c4.5,0,5.8,3.6,5.8,6.2c0,0.5-0.1,1-0.1,1.3H232.2z M238.3,435.5c0-0.9-0.4-3-2.9-3c-2.2,0-3.1,1.8-3.2,3
			H238.3z"/>
		<path d="M244.1,434.4c0-1.4,0-2.7-0.1-3.8h2.9l0.2,2h0.1c0.5-1,2-2.3,4.3-2.3c2.2,0,4.8,1.3,4.8,5.6v7.1H253v-6.7
			c0-2-0.8-3.4-2.7-3.4c-1.4,0-2.4,1-2.8,2c-0.1,0.3-0.1,0.6-0.1,1v7.2h-3.3V434.4z"/>
		<path d="M263.5,427v3.6h3.2v2.5h-3.2v5.2c0,1.5,0.3,2.4,1.7,2.4c0.6,0,1.1-0.1,1.3-0.2l0.1,2.5c-0.5,0.2-1.4,0.4-2.5,0.4
			c-1.2,0-2.3-0.5-2.9-1.1c-0.7-0.7-1-2-1-3.5v-5.6h-1.9v-2.5h1.9v-2.9L263.5,427z"/>
	</g>
	<line class="st2" x1="304.8" y1="379.9" x2="304.8" y2="383.6"/>
	<polyline class="st3" points="304.8,388.8 304.8,390.7 327.1,390.7 327.1,372.5 304.8,372.5 304.8,374.2 304.8,374.7 	"/>
	<rect x="299.5" y="374.7" class="st2" width="10.6" height="5.2"/>
	<rect x="299.5" y="383.6" class="st2" width="10.6" height="5.2"/>
	<path class="st0" d="M281.6,176.3H115.8c-30,0-54.4-24.4-54.4-54.4v-2.2c0-30,24.4-54.4,54.4-54.4h165.8c30,0,54.4,24.4,54.4,54.4
		v2.2C336,151.9,311.6,176.3,281.6,176.3z"/>
	<g>
		<g>
			<path d="M95,123.2l-1.6,5h-3.5l6.1-17.2h4.3l6.3,17.2h-3.6l-1.8-5H95z M100.5,120.8l-1.6-4.3c-0.4-1-0.7-2.1-1-3h-0.1
				c-0.3,0.9-0.5,2-0.9,3l-1.5,4.4H100.5z"/>
			<path d="M108.8,120c0-1.6,0-3-0.1-4.2h2.9l0.2,2h0.1c1-1.5,2.6-2.3,4.8-2.3c3,0,5.7,2.4,5.7,6.3c0,4.5-3.1,6.7-6.2,6.7
				c-1.7,0-3.2-0.6-4-1.8h-0.1v6.6h-3.3V120z M112.1,122.8c0,0.3,0,0.5,0.1,0.8c0.3,1.3,1.6,2.4,3.2,2.4c2.2,0,3.6-1.6,3.6-4.1
				c0-2.1-1.2-3.9-3.5-3.9c-1.5,0-2.9,1-3.3,2.6c-0.1,0.2-0.1,0.5-0.1,0.8V122.8z"/>
			<path d="M125.1,120c0-1.6,0-3-0.1-4.2h2.9l0.2,2h0.1c1-1.5,2.6-2.3,4.8-2.3c3,0,5.7,2.4,5.7,6.3c0,4.5-3.1,6.7-6.2,6.7
				c-1.7,0-3.2-0.6-4-1.8h-0.1v6.6h-3.3V120z M128.3,122.8c0,0.3,0,0.5,0.1,0.8c0.3,1.3,1.6,2.4,3.2,2.4c2.2,0,3.6-1.6,3.6-4.1
				c0-2.1-1.2-3.9-3.5-3.9c-1.5,0-2.9,1-3.3,2.6c-0.1,0.2-0.1,0.5-0.1,0.8V122.8z"/>
			<path d="M141.3,109.9h3.3v18.3h-3.3V109.9z"/>
			<path d="M151.8,112.2c0,0.9-0.7,1.7-1.9,1.7c-1.1,0-1.8-0.8-1.8-1.7c0-1,0.7-1.7,1.9-1.7C151.1,110.5,151.8,111.3,151.8,112.2z
				 M148.3,128.2v-12.4h3.3v12.4H148.3z"/>
			<path d="M165.2,127.8c-0.7,0.3-2.2,0.7-4,0.7c-4.2,0-6.9-2.6-6.9-6.4c0-3.7,2.7-6.7,7.4-6.7c1.3,0,2.6,0.3,3.4,0.6l-0.6,2.4
				c-0.6-0.3-1.4-0.6-2.7-0.6c-2.6,0-4.2,1.7-4.2,4c0,2.6,1.9,4,4.2,4c1.3,0,2.2-0.3,2.8-0.6L165.2,127.8z"/>
			<path d="M175.4,128.2l-0.2-1.4h-0.1c-0.8,1-2.2,1.7-4,1.7c-2.8,0-4.2-1.9-4.2-3.7c0-3.1,2.8-4.8,8-4.7v-0.2
				c0-0.7-0.3-2.2-2.7-2.2c-1.3,0-2.8,0.4-3.7,1l-0.7-2.1c1-0.6,2.8-1.2,4.9-1.2c4.2,0,5.5,2.6,5.5,5.4v4.3c0,1.2,0.1,2.3,0.2,3
				H175.4z M175,122.2c-2.6,0-4.8,0.5-4.8,2.3c0,1.2,0.8,1.7,1.9,1.7c1.4,0,2.4-0.9,2.8-1.8c0.1-0.2,0.1-0.5,0.1-0.7V122.2z"/>
			<path d="M185.4,112.1v3.6h3.2v2.5h-3.2v5.2c0,1.5,0.3,2.4,1.7,2.4c0.6,0,1.1-0.1,1.3-0.2l0.1,2.5c-0.5,0.2-1.4,0.4-2.5,0.4
				c-1.2,0-2.3-0.5-2.9-1.1c-0.7-0.7-1-2-1-3.5v-5.6h-1.9v-2.5h1.9v-2.9L185.4,112.1z"/>
			<path d="M194.7,112.2c0,0.9-0.7,1.7-1.9,1.7c-1.1,0-1.8-0.8-1.8-1.7c0-1,0.7-1.7,1.9-1.7C194,110.5,194.7,111.3,194.7,112.2z
				 M191.2,128.2v-12.4h3.3v12.4H191.2z"/>
			<path d="M211.1,121.8c0,4.4-3.4,6.7-7,6.7c-3.8,0-6.8-2.5-6.8-6.4c0-3.9,2.8-6.6,7.1-6.6C208.4,115.5,211.1,118.2,211.1,121.8z
				 M200.6,122c0,2.5,1.5,4.2,3.5,4.2c1.9,0,3.5-1.5,3.5-4.2c0-2-1-4.1-3.5-4.1C201.8,117.8,200.6,119.9,200.6,122z"/>
			<path d="M213.8,119.5c0-1.4,0-2.7-0.1-3.8h2.9l0.2,2h0.1c0.5-1,2-2.3,4.3-2.3c2.2,0,4.8,1.3,4.8,5.6v7.1h-3.3v-6.7
				c0-2-0.8-3.4-2.7-3.4c-1.4,0-2.4,1-2.8,2c-0.1,0.3-0.1,0.6-0.1,1v7.2h-3.3V119.5z"/>
			<path d="M235.2,125.2c0.8,0.5,2.3,1,3.5,1c1.5,0,2.1-0.6,2.1-1.4c0-0.9-0.6-1.3-2.2-1.7c-2.6-0.7-3.8-2.1-3.7-3.7
				c0-2.2,1.9-3.9,5-3.9c1.5,0,2.8,0.4,3.6,0.8l-0.6,2.3c-0.5-0.3-1.7-0.8-2.9-0.8c-1.2,0-1.9,0.5-1.9,1.3c0,0.8,0.7,1.2,2.4,1.7
				c2.5,0.7,3.6,1.9,3.6,3.8c0,2.2-1.8,3.9-5.4,3.9c-1.7,0-3.1-0.4-4.2-0.9L235.2,125.2z"/>
			<path d="M249.1,122.9c0.1,2.1,2,3.1,4.2,3.1c1.6,0,2.7-0.2,3.8-0.6l0.5,2.2c-1.2,0.5-2.7,0.9-4.8,0.9c-4.3,0-6.9-2.5-6.9-6.3
				c0-3.2,2.1-6.7,6.6-6.7c4.5,0,5.8,3.6,5.8,6.2c0,0.5-0.1,1-0.1,1.3H249.1z M255.3,120.6c0-0.9-0.4-3-2.9-3c-2.2,0-3.1,1.8-3.2,3
				H255.3z"/>
			<path d="M261.1,119.9c0-1.8,0-3-0.1-4.2h2.8l0.1,2.5h0.1c0.7-1.9,2.2-2.8,3.7-2.8c0.3,0,0.5,0,0.8,0.1v3c-0.3-0.1-0.6-0.1-1-0.1
				c-1.7,0-2.7,1-3,2.5c0,0.3-0.1,0.6-0.1,0.9v6.4h-3.3V119.9z"/>
			<path d="M273.4,115.8l2.3,6.3c0.4,1.1,0.7,2.1,1,3h0.1c0.3-1,0.6-1.9,1-3l2.2-6.3h3.5l-5.2,12.4h-3.3l-5-12.4H273.4z"/>
			<path d="M289,112.2c0,0.9-0.7,1.7-1.9,1.7c-1.1,0-1.8-0.8-1.8-1.7c0-1,0.7-1.7,1.9-1.7C288.3,110.5,289,111.3,289,112.2z
				 M285.5,128.2v-12.4h3.3v12.4H285.5z"/>
			<path d="M302.4,127.8c-0.7,0.3-2.2,0.7-4,0.7c-4.2,0-6.9-2.6-6.9-6.4c0-3.7,2.7-6.7,7.4-6.7c1.3,0,2.6,0.3,3.4,0.6l-0.6,2.4
				c-0.6-0.3-1.4-0.6-2.7-0.6c-2.6,0-4.2,1.7-4.2,4c0,2.6,1.9,4,4.2,4c1.3,0,2.2-0.3,2.8-0.6L302.4,127.8z"/>
			<path d="M307.1,122.9c0.1,2.1,2,3.1,4.2,3.1c1.6,0,2.7-0.2,3.8-0.6l0.5,2.2c-1.2,0.5-2.7,0.9-4.8,0.9c-4.3,0-6.9-2.5-6.9-6.3
				c0-3.2,2.1-6.7,6.6-6.7c4.5,0,5.8,3.6,5.8,6.2c0,0.5-0.1,1-0.1,1.3H307.1z M313.2,120.6c0-0.9-0.4-3-2.9-3c-2.2,0-3.1,1.8-3.2,3
				H313.2z"/>
		</g>
	</g>
</g>
<g id="Layer_9">
	<rect x="57.3" y="60" class="st4" width="280.3" height="121.9"/>
</g>
<g id="Layer_7">
	<g>
		<g>
			<line class="st5" x1="63.6" y1="133.7" x2="332.2" y2="133.7"/>
			<g>
				<path class="st6" d="M63.8,136.5c-1.6,0-2.9-1.3-2.9-2.9s1.3-2.9,2.9-2.9c1.6,0,2.9,1.3,2.9,2.9S65.4,136.5,63.8,136.5z"/>
			</g>
			<g>
				<path class="st6" d="M332.1,136.5c1.6,0,2.9-1.3,2.9-2.9s-1.3-2.9-2.9-2.9c-1.6,0-2.9,1.3-2.9,2.9S330.5,136.5,332.1,136.5z"/>
			</g>
		</g>
	</g>
	<g>
		<g>
			<line class="st5" x1="196.6" y1="68.7" x2="196.6" y2="174.8"/>
			<g>
				<path class="st6" d="M193.8,68.9c0-1.6,1.3-2.9,2.9-2.9c1.6,0,2.9,1.3,2.9,2.9s-1.3,2.9-2.9,2.9
					C195.1,71.7,193.8,70.5,193.8,68.9z"/>
			</g>
			<g>
				<path class="st6" d="M193.8,174.6c0,1.6,1.3,2.9,2.9,2.9c1.6,0,2.9-1.3,2.9-2.9s-1.3-2.9-2.9-2.9
					C195.1,171.7,193.8,173,193.8,174.6z"/>
			</g>
		</g>
	</g>
	<circle class="st7" cx="196.6" cy="133.7" r="3.3"/>
	<line class="st8" x1="198.7" y1="362.6" x2="198.7" y2="180.8"/>
	<g>
		<g>
			<line class="st5" x1="64.6" y1="424.7" x2="330.2" y2="424.7"/>
			<g>
				<path class="st6" d="M64.8,427.5c-1.6,0-2.9-1.3-2.9-2.9s1.3-2.9,2.9-2.9c1.6,0,2.9,1.3,2.9,2.9S66.4,427.5,64.8,427.5z"/>
			</g>
			<g>
				<path class="st6" d="M330.1,427.5c1.6,0,2.9-1.3,2.9-2.9s-1.3-2.9-2.9-2.9c-1.6,0-2.9,1.3-2.9,2.9S328.5,427.5,330.1,427.5z"/>
			</g>
		</g>
	</g>
	<g>
		<g>
			<line class="st5" x1="196.6" y1="368.7" x2="196.6" y2="471.8"/>
			<g>
				<path class="st6" d="M193.8,368.9c0-1.6,1.3-2.9,2.9-2.9c1.6,0,2.9,1.3,2.9,2.9s-1.3,2.9-2.9,2.9
					C195.1,371.7,193.8,370.5,193.8,368.9z"/>
			</g>
			<g>
				<path class="st6" d="M193.8,471.6c0,1.6,1.3,2.9,2.9,2.9c1.6,0,2.9-1.3,2.9-2.9s-1.3-2.9-2.9-2.9
					C195.1,468.7,193.8,470,193.8,471.6z"/>
			</g>
		</g>
	</g>
</g>
<g id="Layer_8">
	<rect class="st9" width="948.4" height="525.7"/>
</g>
<g id="Layer_4">
	<path class="st10" d="M516.5,285.4H214.6c-11.5,0-20.8-9.3-20.8-20.8v-112c0-11.5,9.3-20.8,20.8-20.8h301.9
		c11.5,0,20.8,9.3,20.8,20.8v112C537.3,276.1,528,285.4,516.5,285.4z"/>
</g>
<g id="Layer_2">
	<path class="st11" d="M263.3,202.6h-41.6c-8,0-14.4-6.5-14.4-14.4v-27.4c0-8,6.5-14.4,14.4-14.4h41.6c8,0,14.4,6.5,14.4,14.4v27.4
		C277.7,196.1,271.2,202.6,263.3,202.6z"/>
	<path class="st11" d="M345.5,202.6h-41.6c-8,0-14.4-6.5-14.4-14.4v-27.4c0-8,6.5-14.4,14.4-14.4h41.6c8,0,14.4,6.5,14.4,14.4v27.4
		C359.9,196.1,353.4,202.6,345.5,202.6z"/>
	<path class="st11" d="M425.5,202.6h-41.6c-8,0-14.4-6.5-14.4-14.4v-27.4c0-8,6.5-14.4,14.4-14.4h41.6c8,0,14.4,6.5,14.4,14.4v27.4
		C439.9,196.1,433.4,202.6,425.5,202.6z"/>
	<path class="st11" d="M507.3,202.6h-41.6c-8,0-14.4-6.5-14.4-14.4v-27.4c0-8,6.5-14.4,14.4-14.4h41.6c8,0,14.4,6.5,14.4,14.4v27.4
		C521.7,196.1,515.2,202.6,507.3,202.6z"/>
	<path class="st11" d="M263.3,269.5h-41.6c-8,0-14.4-6.5-14.4-14.4v-27.4c0-8,6.5-14.4,14.4-14.4h41.6c8,0,14.4,6.5,14.4,14.4v27.4
		C277.7,263.1,271.2,269.5,263.3,269.5z"/>
	<path class="st11" d="M345.5,269.5h-41.6c-8,0-14.4-6.5-14.4-14.4v-27.4c0-8,6.5-14.4,14.4-14.4h41.6c8,0,14.4,6.5,14.4,14.4v27.4
		C359.9,263.1,353.4,269.5,345.5,269.5z"/>
</g>
<g id="Layer_3">
	<g>
		<g>
			<line class="st12" x1="221.1" y1="189.6" x2="260" y2="162.4"/>
			<g>
				<path class="st7" d="M224.3,193.8c-2.4,1.7-5.7,1.1-7.3-1.3c-1.7-2.4-1.1-5.7,1.3-7.3c2.4-1.7,5.7-1.1,7.3,1.3
					C227.3,188.8,226.7,192.1,224.3,193.8z"/>
			</g>
			<g>
				<polygon class="st7" points="262.3,169.3 268.3,156.7 254.3,157.9 				"/>
			</g>
		</g>
	</g>
	<g>
		<g>
			<line class="st12" x1="381.3" y1="193.1" x2="423.4" y2="161.4"/>
			<g>
				<polygon class="st7" points="426,168.2 431.5,155.4 417.6,157 				"/>
			</g>
		</g>
	</g>
	<g>
		<g>
			<line class="st13" x1="463.2" y1="193.5" x2="505.4" y2="161.8"/>
			<g>
				<polygon class="st7" points="508,168.6 513.5,155.7 499.6,157.4 				"/>
			</g>
		</g>
	</g>
	<g>
		<g>
			<line class="st12" x1="217.5" y1="261.5" x2="264.9" y2="225.8"/>
			<g>
				<path class="st7" d="M260.4,239.9c-0.5-0.2-0.7-0.7-0.5-1.1l4.7-12.6l-13.5,1c-0.5,0-0.9-0.3-0.9-0.8c0-0.5,0.3-0.9,0.8-0.9
					l14.9-1.2c0.3,0,0.6,0.1,0.8,0.4s0.2,0.6,0.1,0.8l-5.2,13.9c-0.1,0.2-0.2,0.3-0.3,0.4C261,239.9,260.7,240,260.4,239.9z"/>
			</g>
		</g>
	</g>
	<line class="st12" x1="299.6" y1="259.9" x2="348.1" y2="224.8"/>
	<line class="st13" x1="298.8" y1="193" x2="331.9" y2="168.5"/>
	<polygon class="st14" points="325.7,160 338.1,176.3 349.4,156.1 	"/>
</g>
</svg>
